<?xml version="1.0" encoding="UTF-8" standalone="no"?>
<!-- Created with Inkscape (http://www.inkscape.org/) -->

<svg
   xmlns:dc="http://purl.org/dc/elements/1.1/"
   xmlns:cc="http://creativecommons.org/ns#"
   xmlns:rdf="http://www.w3.org/1999/02/22-rdf-syntax-ns#"
   xmlns:svg="http://www.w3.org/2000/svg"
   xmlns="http://www.w3.org/2000/svg"
   xmlns:xlink="http://www.w3.org/1999/xlink"
   xmlns:sodipodi="http://sodipodi.sourceforge.net/DTD/sodipodi-0.dtd"
   xmlns:inkscape="http://www.inkscape.org/namespaces/inkscape"
   width="600"
   height="100"
   viewBox="0 0 158.75 26.458334"
   version="1.1"
   id="svg8"
   inkscape:version="0.92.2 2405546, 2018-03-11"
   sodipodi:docname="logo.svg">
  <defs
     id="defs2">
    <linearGradient
       inkscape:collect="always"
       id="linearGradient1040">
      <stop
         style="stop-color:#9a55fe;stop-opacity:1;"
         offset="0"
         id="stop1036" />
      <stop
         style="stop-color:#7740fe;stop-opacity:1"
         offset="1"
         id="stop1038" />
    </linearGradient>
    <linearGradient
       inkscape:collect="always"
       xlink:href="#linearGradient1040"
       id="linearGradient1042"
       x1="54.581768"
       y1="48.467396"
       x2="201.15666"
       y2="48.710876"
       gradientUnits="userSpaceOnUse" />
  </defs>
  <sodipodi:namedview
     id="base"
     pagecolor="#ffffff"
     bordercolor="#666666"
     borderopacity="1.0"
     inkscape:pageopacity="0.0"
     inkscape:pageshadow="2"
     inkscape:zoom="1.0866743"
     inkscape:cx="135.57517"
     inkscape:cy="0.73178"
     inkscape:document-units="px"
     inkscape:current-layer="layer1"
     showgrid="false"
     fit-margin-top="0"
     fit-margin-left="0"
     fit-margin-right="0"
     fit-margin-bottom="0"
     inkscape:window-width="1920"
     inkscape:window-height="1052"
     inkscape:window-x="0"
     inkscape:window-y="28"
     inkscape:window-maximized="1"
     units="px" />
  <metadata
     id="metadata5">
    <rdf:RDF>
      <cc:Work
         rdf:about="">
        <dc:format>image/svg+xml</dc:format>
        <dc:type
           rdf:resource="http://purl.org/dc/dcmitype/StillImage" />
        <dc:title></dc:title>
      </cc:Work>
    </rdf:RDF>
  </metadata>
  <g
     inkscape:label="Layer 1"
     inkscape:groupmode="layer"
     id="layer1"
     transform="translate(-15.381506,-38.809176)">
    <g
       id="g912"
       transform="translate(0.25126649)">
      <g
         transform="matrix(0.8385665,0,0,0.8385665,2.4830904,10.536363)"
         id="g904">
        <text
           xml:space="preserve"
           style="font-style:normal;font-weight:normal;font-size:27.18546104px;line-height:1.25;font-family:sans-serif;letter-spacing:0px;word-spacing:0px;fill:#292941;fill-opacity:1;stroke:none;stroke-width:0.67963654"
           x="51.041794"
           y="58.739212"
           id="text929"><tspan
             sodipodi:role="line"
             id="tspan927"
             x="51.041794"
             y="58.739212"
             style="font-style:normal;font-variant:normal;font-weight:bold;font-stretch:normal;font-family:Ubuntu;-inkscape-font-specification:'Ubuntu Bold';fill:#292941;fill-opacity:1;stroke-width:0.67963654"><tspan
               style="font-style:normal;font-variant:normal;font-weight:600;font-stretch:normal;font-family:Ubuntu;-inkscape-font-specification:'Ubuntu Semi-Bold';fill:#292941;fill-opacity:1"
               id="tspan926">CODE</tspan><tspan
               id="tspan930"
               style="font-style:normal;font-variant:normal;font-weight:normal;font-stretch:normal;font-family:Ubuntu;-inkscape-font-specification:Ubuntu;fill:#292941;fill-opacity:1">CASTS</tspan></tspan></text>
        <path
           style="fill:#292941;fill-opacity:1;stroke:#292941;stroke-width:0.9133628;stroke-linejoin:round;stroke-miterlimit:4;stroke-dasharray:none;stroke-opacity:1;paint-order:fill markers stroke"
           d="m 21.519857,34.173059 c -2.005398,-0.03361 -3.985751,1.111809 -4.969539,2.927331 -0.02139,0.03949 -0.04191,0.07954 -0.06235,0.119655 -0.03174,0.06147 -0.06232,0.123616 -0.0918,0.186525 -0.0043,0.0094 -0.0084,0.01875 -0.01274,0.02812 -0.05327,0.115404 -0.104092,0.232377 -0.14938,0.352352 -0.0038,0.0098 -0.0072,0.03359 -0.01093,0.04749 -0.09284,0.258617 -0.168658,0.526324 -0.221016,0.804464 -0.08761,0.46543 -0.132521,5.076634 -0.1377,9.915994 -0.05049,4.824601 -0.02873,9.749963 0.101882,11.239966 0.01105,0.233014 0.02299,0.406517 0.03581,0.474666 0.170297,0.904644 0.589,1.752656 1.176717,2.463542 0.05767,0.0707 0.116914,0.139915 0.178034,0.207485 0.0107,0.01177 0.02162,0.02312 0.03237,0.03476 0.0743,0.08069 0.150643,0.159391 0.22977,0.235343 0.01976,0.0191 0.04019,0.03743 0.06023,0.05626 0.04865,0.04529 0.09821,0.08971 0.148583,0.1332 0.607498,0.532398 1.324011,0.93896 2.102169,1.159735 0.958065,0.271816 1.535779,0.413441 2.64768,0.01105 0.0094,-0.0033 0.01882,-0.0067 0.02839,-0.01013 0.01634,-0.006 0.03145,-0.01082 0.04803,-0.01699 1.93e-4,-7.1e-5 3.4e-4,-1.92e-4 5.15e-4,-2.63e-4 0.220496,-0.04776 0.42839,-0.106577 0.613432,-0.177503 0.361077,-0.138392 2.043279,-1.136194 4.227424,-2.476013 0.06365,-0.03883 0.13234,-0.08095 0.197401,-0.120722 0.07228,-0.0444 0.142686,-0.08757 0.215975,-0.132658 1.170821,-0.717421 2.54723,-1.572769 4.223444,-2.616105 3.878612,-2.414193 6.233045,-3.88735 7.695753,-4.94566 0.621533,-0.412111 1.046729,-0.705113 1.141162,-0.796241 0.219435,-0.211752 0.414402,-0.440713 0.586635,-0.682416 0.161999,-0.18609 0.290364,-0.365128 0.39613,-0.544182 0.225845,-0.36316 0.343195,-0.718513 0.42399,-1.128956 0.04037,-0.171858 0.07879,-0.350376 0.117536,-0.547367 0.06977,-0.354632 0.08135,-0.735211 0.04856,-1.124714 -0.03804,-0.958745 -0.327694,-1.906863 -0.86045,-2.737358 -0.243883,-0.460979 -0.541091,-0.860548 -0.884858,-1.161328 -0.113309,-0.113654 -0.228675,-0.214564 -0.345454,-0.301408 -0.300904,-0.228774 -0.605652,-0.363969 -0.893881,-0.370924 -0.347675,-0.07247 -0.622196,0.02604 -0.784034,0.230037 -0.07188,0.07939 -0.122438,0.178295 -0.148318,0.292918 -0.03252,0.06703 -0.05299,0.138324 -0.05996,0.213852 -0.09299,0.371497 0.130596,0.788972 0.674456,1.24756 0.156142,0.131661 0.299122,0.273255 0.4285,0.422926 0.947884,1.096579 1.174341,2.625987 0.635984,3.847745 -0.133213,0.279092 -0.307474,0.547438 -0.524282,0.799159 -0.01082,0.01205 -0.02193,0.02407 -0.03291,0.03607 -0.20987,0.213043 -3.333599,2.233541 -6.841141,4.463032 -1.8332,1.15261 -3.705798,2.32425 -5.405997,3.381832 -2.811272,1.705387 -5.08392,3.039905 -5.360627,3.103774 -0.09302,0.02147 -0.186032,0.03765 -0.278858,0.05119 -1.2016,0.123464 -2.585942,-0.48255 -3.363244,-1.495105 -0.12478,-0.173125 -0.235658,-0.357317 -0.329003,-0.551877 -0.0084,-0.01831 -0.01678,-0.03668 -0.02495,-0.05519 -0.01851,-0.09377 -0.03641,-0.215369 -0.0536,-0.358455 -0.14404,-1.528945 -0.218612,-6.792706 -0.218097,-11.800862 0.0215,-3.893802 0.08878,-7.639221 0.196607,-9.365444 0.03777,-0.459004 0.07877,-0.801839 0.12284,-0.998419 0.442331,-0.898028 1.266992,-1.550033 2.180442,-1.847193 0.301158,-0.08664 0.617458,-0.135332 0.941903,-0.141948 0.959628,0.215596 2.182145,0.761303 3.762044,1.643687 0.840475,0.518649 1.769978,1.093238 2.837387,1.758841 2.357709,1.470197 3.644296,2.265921 4.410497,2.626188 0.307706,0.171019 0.509451,0.273548 0.548956,0.273548 0.0087,0 0.01703,-0.0011 0.02574,-0.0014 10e-4,8.9e-5 0.0041,0.0014 0.0049,0.0014 0.0021,0 0.004,-5.13e-4 0.0061,-5.13e-4 3.06e-4,9e-6 0.0013,5.13e-4 0.0015,5.13e-4 0.0053,0 0.01013,-0.0013 0.01539,-0.0014 7.71e-4,6.3e-5 0.0033,0.0014 0.004,0.0014 0.0067,0 0.01274,-0.0014 0.01937,-0.0015 0.0012,1.07e-4 0.0046,0.0015 0.0055,0.0015 0.05496,0 0.107049,-0.007 0.157602,-0.01778 0.201052,0.0055 0.318718,-0.081 0.438053,-0.219955 0.139427,-0.162342 0.249888,-0.298613 0.308573,-0.432214 0.106612,-0.19419 0.114955,-0.367835 -0.09021,-0.616084 -0.0061,-0.01659 -0.0107,-0.03383 -0.01777,-0.05015 -0.01652,-0.03785 -0.03607,-0.07486 -0.0589,-0.110639 -2.57e-4,-4.07e-4 -2.71e-4,-9.24e-4 -5.12e-4,-0.0014 -0.0049,-0.0077 -0.02216,-0.02292 -0.04696,-0.04271 -0.0066,-0.0087 -0.01139,-0.01817 -0.01831,-0.0268 -0.0553,-0.0688 -0.488895,-0.36257 -1.136917,-0.781381 -0.742506,-0.502039 -1.826143,-1.184872 -3.380679,-2.160187 -2.539891,-1.593523 -5.015334,-3.091229 -5.500984,-3.328237 -0.127536,-0.06224 -0.256998,-0.116178 -0.38711,-0.166359 -0.0302,-0.01177 -0.06027,-0.02313 -0.08914,-0.03343 -0.526301,-0.191271 -1.069598,-0.288608 -1.611584,-0.297693 z"
           id="path1004"
           inkscape:connector-curvature="0" />
      </g>
    </g>
  </g>
</svg>
